<svg xmlns="http://www.w3.org/2000/svg" viewBox="0 0 900 900">
  <defs>
    <linearGradient id="bg" x1="0" x2="0" y1="0" y2="1">
      <stop offset="0" stop-color="#efe1c9"/>
      <stop offset="1" stop-color="#a97861"/>
    </linearGradient>
    <linearGradient id="metal" x1="0" x2="1" y1="0" y2="1">
      <stop offset="0" stop-color="#d8cab2"/>
      <stop offset="1" stop-color="#8f6553"/>
    </linearGradient>
  </defs>
  <rect width="900" height="900" fill="url(#bg)"/>
  <rect x="180" y="110" width="540" height="680" rx="38" fill="url(#metal)" stroke="#4b3028" stroke-width="18"/>
  <rect x="226" y="170" width="448" height="520" rx="28" fill="#f6efdf" stroke="#5f3e34" stroke-width="10"/>
  <rect x="226" y="454" width="448" height="14" fill="#5c4035"/>
  <rect x="618" y="255" width="18" height="150" rx="9" fill="#50352d"/>
  <rect x="618" y="540" width="18" height="110" rx="9" fill="#50352d"/>
  <ellipse cx="360" cy="410" rx="74" ry="86" fill="#fff5ea"/>
  <ellipse cx="542" cy="410" rx="74" ry="86" fill="#fff5ea"/>
  <path d="M258 323c48-44 142-58 203-20" fill="none" stroke="#2f1e1a" stroke-width="28" stroke-linecap="round"/>
  <path d="M448 303c60-37 154-24 202 20" fill="none" stroke="#2f1e1a" stroke-width="28" stroke-linecap="round"/>
  <ellipse cx="360" cy="410" rx="18" ry="22" fill="#0e0b0b"/>
  <ellipse cx="542" cy="410" rx="18" ry="22" fill="#0e0b0b"/>
  <path d="M363 527c30-18 65-18 95 0" fill="none" stroke="#63352c" stroke-width="12" stroke-linecap="round"/>
  <path d="M322 604c57 44 198 44 255 0" fill="none" stroke="#2f1d19" stroke-width="24" stroke-linecap="round"/>
  <path d="M274 626c70 78 286 78 357 0" fill="none" stroke="#8e4037" stroke-width="16" stroke-linecap="round"/>
  <circle cx="282" cy="248" r="16" fill="#a65040"/>
  <circle cx="620" cy="218" r="14" fill="#a65040"/>
  <circle cx="332" cy="690" r="11" fill="#6e3f36"/>
  <circle cx="566" cy="720" r="14" fill="#6e3f36"/>
</svg>
